<svg width="256" height="221" viewBox="0 0 256 221" fill="none" xmlns="http://www.w3.org/2000/svg">
<path d="M37.3983 221C35.2138 221 33.0293 220.071 31.3653 218.213C28.0316 214.5 28.0316 208.477 31.3653 204.764L212.571 2.78687C215.905 -0.928958 221.304 -0.928958 224.637 2.78687C227.971 6.49953 227.971 12.5235 224.637 16.2362L43.4314 218.213C41.7674 220.071 39.5829 221 37.3983 221Z" fill="#18ACFE"/>
<path d="M71.9533 182.478C70.5197 182.478 69.0747 182.075 67.7605 181.247C45.8099 167.443 23.6744 145.684 1.97121 116.579C-0.657068 113.053 -0.657068 107.942 1.97121 104.42C63.2208 22.291 125.89 0.531846 188.24 39.7446C190.561 41.2063 192.14 43.7934 192.501 46.742C192.862 49.6905 191.966 52.6518 190.078 54.7538L77.9892 179.691C76.3479 181.523 74.1634 182.478 71.9533 182.478ZM19.7206 110.498C36.7077 132.361 53.7801 149.311 70.6107 161.016L169.717 50.5497C119.84 25.2047 70.6107 44.9031 19.7206 110.498Z" fill="#18ACFE"/>
<path d="M97.8319 153.635C95.5706 153.635 93.4003 152.637 91.7988 150.852C82.1277 140.075 76.8 125.745 76.8 110.498C76.8 79.0303 99.769 53.4285 128 53.4285C141.508 53.4285 154.254 59.24 163.889 69.7978C165.507 71.5733 166.429 73.9892 166.44 76.5193C166.451 79.0493 165.564 81.4811 163.968 83.2788L103.891 150.823C102.292 152.618 100.119 153.632 97.849 153.639C97.8433 153.635 97.8376 153.635 97.8319 153.635ZM128 72.4515C109.178 72.4515 93.8668 89.5183 93.8668 110.498C93.8668 117.393 95.4995 124.007 98.563 129.79L145.053 77.5243C139.918 74.2143 134.076 72.4515 128 72.4515Z" fill="#18ACFE"/>
<path d="M127.922 200.097C117.819 200.097 107.715 198.508 97.609 195.325C93.075 193.898 90.4382 188.642 91.7182 183.585C92.9982 178.531 97.7057 175.582 102.251 177.022C146.147 190.842 191.22 168.477 236.276 110.498C224.964 95.9394 213.577 83.5046 202.356 73.4668C198.681 70.179 198.092 64.1931 201.042 60.0936C203.994 55.9973 209.368 55.3411 213.04 58.6289C226.682 70.8321 240.472 86.2376 254.025 104.417C256.657 107.94 256.657 113.054 254.025 116.576C212.602 172.127 170.308 200.097 127.922 200.097Z" fill="#18ACFE"/>
<path d="M128.001 167.568C126.903 167.568 125.81 167.527 124.732 167.454C120.028 167.134 116.446 162.626 116.734 157.378C117.024 152.141 121.077 148.155 125.773 148.466C126.51 148.517 127.252 148.545 128.001 148.545C146.822 148.545 162.134 131.479 162.134 110.499C162.134 109.643 162.108 108.794 162.06 107.953C161.756 102.713 165.32 98.185 170.022 97.8458C174.758 97.5192 178.788 101.479 179.093 106.72C179.164 107.969 179.201 109.228 179.201 110.499C179.201 141.967 156.232 167.568 128.001 167.568Z" fill="#18ACFE"/>
</svg>
