<svg width="256" height="177" viewBox="0 0 256 177" fill="none" xmlns="http://www.w3.org/2000/svg">
<path d="M127.999 177C85.7052 177 43.3063 149.245 1.97118 94.5042C-0.657061 91.0222 -0.657061 85.9747 1.97118 82.4927C43.3063 27.7554 85.7052 0 127.999 0C170.29 0 212.692 27.7554 254.027 82.4927C256.658 85.9747 256.658 91.0222 254.027 94.5042C212.692 149.241 170.29 177 127.999 177ZM19.7232 88.4984C56.1204 134.766 92.5233 158.213 127.999 158.213C163.477 158.213 199.877 134.769 236.275 88.4984C199.877 42.2311 163.477 18.7875 127.999 18.7875C92.5233 18.7875 56.1204 42.2311 19.7232 88.4984Z" fill="#18ACFE"/>
<path d="M127.999 141.729C101.335 141.729 79.6438 117.85 79.6438 88.4982C79.6438 59.1459 101.335 35.267 127.999 35.267C154.663 35.267 176.354 59.1459 176.354 88.4982C176.354 117.85 154.663 141.729 127.999 141.729ZM127.999 54.0544C110.748 54.0544 96.7103 69.5072 96.7103 88.4982C96.7103 107.489 110.748 122.942 127.999 122.942C145.25 122.942 159.288 107.489 159.288 88.4982C159.288 69.5072 145.25 54.0544 127.999 54.0544Z" fill="#18ACFE"/>
</svg>
