<svg width="60" height="60" viewBox="0 0 60 60" fill="none" xmlns="http://www.w3.org/2000/svg">
<g clip-path="url(#clip0_633_236)">
<rect width="60" height="60" rx="30" fill="#EC6161"/>
<circle cx="30" cy="30" r="30" fill="#F9570F"/>
<path d="M16 60V14H31.8579C33.6374 14 35.2598 14.3549 36.7252 15.0648C38.2255 15.7408 39.5165 16.6704 40.5981 17.8535C41.6798 19.0028 42.5171 20.3042 43.1103 21.7577C43.7034 23.2113 44 24.6986 44 26.2197C44 28.2817 43.4941 30.2423 42.4822 32.1014C41.5053 33.9606 40.1271 35.4817 38.3477 36.6648C36.6031 37.8141 34.5271 38.3887 32.1196 38.3887H24.5832V60H16ZM24.5832 31.138H31.5963C32.2592 31.138 32.8698 30.9521 33.428 30.5803C33.9863 30.2085 34.4399 29.6507 34.7888 28.907C35.1377 28.1634 35.3121 27.2507 35.3121 26.169C35.3121 25.0535 35.1028 24.1408 34.6841 23.431C34.3003 22.6873 33.7944 22.1465 33.1664 21.8084C32.5732 21.4704 31.9452 21.3014 31.2822 21.3014H24.5832V31.138Z" fill="#1A1A1B"/>
</g>
<defs>
<clipPath id="clip0_633_236">
<rect width="60" height="60" rx="30" fill="white"/>
</clipPath>
</defs>
</svg>
