<svg width="28" height="28" viewBox="0 0 28 28" fill="none" xmlns="http://www.w3.org/2000/svg">
<path fill-rule="evenodd" clip-rule="evenodd" d="M27.8863 14.3177C27.8863 13.325 27.7972 12.3705 27.6318 11.4541H14.4463V16.8696H21.9808C21.6563 18.6196 20.6699 20.1023 19.1872 21.095V24.6077H23.7117C26.359 22.1705 27.8863 18.5814 27.8863 14.3177Z" fill="#4285F4"/>
<path fill-rule="evenodd" clip-rule="evenodd" d="M14.4465 28.0002C18.2265 28.0002 21.3956 26.7465 23.7119 24.6083L19.1874 21.0956C17.9337 21.9356 16.3301 22.432 14.4465 22.432C10.8001 22.432 7.71373 19.9692 6.61282 16.6602H1.93555V20.2874C4.23918 24.8629 8.97373 28.0002 14.4465 28.0002Z" fill="#34A853"/>
<path fill-rule="evenodd" clip-rule="evenodd" d="M6.61266 16.6602C6.33265 15.8202 6.17356 14.9229 6.17356 14.0002C6.17356 13.0774 6.33265 12.1802 6.61266 11.3402V7.71289H1.93538C0.987198 9.60289 0.446289 11.7411 0.446289 14.0002C0.446289 16.2593 0.987198 18.3974 1.93538 20.2874L6.61266 16.6602Z" fill="#FBBC05"/>
<path fill-rule="evenodd" clip-rule="evenodd" d="M14.4465 5.56818C16.5019 5.56818 18.3474 6.27455 19.7983 7.66182L23.8137 3.64637C21.3892 1.38727 18.2201 0 14.4465 0C8.97373 0 4.23918 3.13727 1.93555 7.71273L6.61282 11.34C7.71373 8.03091 10.8001 5.56818 14.4465 5.56818Z" fill="#EA4335"/>
</svg>
