<svg width="18" height="20" viewBox="0 0 18 20" fill="none" xmlns="http://www.w3.org/2000/svg">
<path d="M9.00008 0.833496C12.2217 0.833496 14.8334 3.44517 14.8334 6.66683V8.3335H16.5001C16.9603 8.3335 17.3334 8.70659 17.3334 9.16683V19.1668C17.3334 19.6271 16.9603 20.0002 16.5001 20.0002H1.50008C1.03984 20.0002 0.666748 19.6271 0.666748 19.1668V9.16683C0.666748 8.70659 1.03984 8.3335 1.50008 8.3335H3.16675V6.66683C3.16675 3.44517 5.77842 0.833496 9.00008 0.833496ZM15.6667 10.0002H2.33341V18.3335H15.6667V10.0002ZM9.00008 11.6668C9.92056 11.6668 10.6667 12.413 10.6667 13.3335C10.6667 13.9614 10.3195 14.5083 9.80654 14.7924C9.82433 14.8586 9.83342 14.9283 9.83342 15.0002V15.8335C9.83342 16.2937 9.46032 16.6668 9.00008 16.6668C8.53984 16.6668 8.16675 16.2937 8.16675 15.8335V15.0002C8.16675 14.9283 8.17584 14.8586 8.19293 14.7921C7.68067 14.5083 7.33342 13.9614 7.33342 13.3335C7.33342 12.413 8.07961 11.6668 9.00008 11.6668ZM9.00008 2.50016C6.75945 2.50016 4.9319 4.26875 4.83726 6.48609L4.83341 6.66683L4.83229 8.27228L4.83349 8.33358L13.1667 8.3335V6.66683C13.1667 4.36564 11.3013 2.50016 9.00008 2.50016Z" fill="#F5350B"/>
</svg>
