<svg width="200" height="32" viewBox="0 0 200 32" fill="none" xmlns="http://www.w3.org/2000/svg">
<path d="M7.51641 21.555V31.4828H0.813721V0.427246H13.8711C15.3285 0.427246 16.6508 0.730582 17.8427 1.33365L17.8427 1.33374L17.8491 1.33678C19.0773 1.91485 20.1327 2.70882 21.0175 3.71968L21.0174 3.71969L21.0199 3.72237C21.9071 4.70717 22.594 5.82198 23.0808 7.06822C23.5676 8.31406 23.8103 9.58696 23.8103 10.8884C23.8103 12.6548 23.3958 14.3338 22.5649 15.9284L22.5633 15.9316C21.7622 17.524 20.6335 18.8253 19.1747 19.8384C17.7581 20.813 16.0672 21.305 14.0907 21.305H7.76641H7.51641V21.555ZM7.51641 15.1995V15.4495H7.76641H13.6515C14.2603 15.4495 14.8223 15.2701 15.3315 14.9158C15.8455 14.5582 16.2519 14.0292 16.5586 13.3463C16.8698 12.6536 17.0198 11.8164 17.0198 10.8439C17.0198 9.84125 16.8404 8.9971 16.4639 8.32703C16.1249 7.64347 15.6705 7.13002 15.0943 6.80529C14.5603 6.48801 13.9903 6.32724 13.388 6.32724H7.76641H7.51641V6.57724V15.1995ZM41.1101 0.427246L51.6565 31.4828H44.8058L42.4481 24.5853L42.3902 24.4161H42.2115H32.5054H32.3256L32.2684 24.5866L29.954 31.4828H23.1048L33.6945 0.427246H41.1101ZM41.0257 19.8939H41.3618L41.2651 19.572L37.6199 7.43865L37.3833 6.65118L37.1415 7.43706L33.4084 19.5704L33.3088 19.8939H33.6473H41.0257ZM59.9871 20.7716L49.2449 0.427246H56.4907L63.1421 14.2413L63.3659 14.706L63.592 14.2424L70.331 0.427246H77.6193L66.7043 20.8594L66.6748 20.9147V20.9772V31.4828H60.016V20.8884V20.8264L59.9871 20.7716Z" stroke="#F5350B" stroke-width="0.5"/>
<path d="M80.9387 31.7333V0.177778H102.108V6.57778H88.1414V13.3778H99.6482V19.2889H88.1414V31.7333H80.9387Z" fill="url(#paint0_linear_630_181)"/>
<path d="M119.173 32C116.831 32 114.708 31.5556 112.805 30.6667C110.931 29.7481 109.306 28.5333 107.93 27.0222C106.583 25.4815 105.544 23.763 104.812 21.8667C104.08 19.9407 103.714 17.9556 103.714 15.9111C103.714 13.8074 104.094 11.8074 104.856 9.91111C105.646 8.01482 106.729 6.32593 108.106 4.84445C109.511 3.33333 111.165 2.14815 113.068 1.28889C114.972 0.429629 117.05 0 119.305 0C121.618 0 123.711 0.459259 125.585 1.37778C127.488 2.26667 129.113 3.48148 130.46 5.02222C131.836 6.56296 132.891 8.2963 133.622 10.2222C134.354 12.1185 134.72 14.0593 134.72 16.0444C134.72 18.1481 134.34 20.1481 133.579 22.0444C132.817 23.9407 131.734 25.6444 130.329 27.1556C128.923 28.637 127.269 29.8222 125.366 30.7111C123.492 31.5704 121.428 32 119.173 32ZM111.048 16C111.048 17.2148 111.224 18.4 111.575 19.5556C111.927 20.6815 112.439 21.6889 113.112 22.5778C113.815 23.4667 114.679 24.1778 115.704 24.7111C116.728 25.2444 117.9 25.5111 119.217 25.5111C120.593 25.5111 121.794 25.2444 122.818 24.7111C123.843 24.1481 124.692 23.4074 125.366 22.4889C126.039 21.5704 126.537 20.5481 126.859 19.4222C127.21 18.2667 127.386 17.0963 127.386 15.9111C127.386 14.6963 127.21 13.5259 126.859 12.4C126.508 11.2741 125.981 10.2667 125.278 9.37778C124.575 8.45926 123.711 7.74815 122.687 7.24445C121.662 6.74074 120.505 6.48889 119.217 6.48889C117.841 6.48889 116.641 6.75556 115.616 7.28889C114.62 7.82222 113.771 8.54815 113.068 9.46667C112.395 10.3556 111.883 11.3778 111.531 12.5333C111.209 13.6593 111.048 14.8148 111.048 16Z" fill="url(#paint1_linear_630_181)"/>
<path d="M152.541 32C150.199 32 148.076 31.5556 146.173 30.6667C144.299 29.7481 142.674 28.5333 141.298 27.0222C139.951 25.4815 138.912 23.763 138.18 21.8667C137.448 19.9407 137.082 17.9556 137.082 15.9111C137.082 13.8074 137.462 11.8074 138.224 9.91111C139.014 8.01482 140.098 6.32593 141.474 4.84445C142.879 3.33333 144.533 2.14815 146.436 1.28889C148.34 0.429629 150.418 0 152.673 0C154.986 0 157.079 0.459259 158.953 1.37778C160.857 2.26667 162.482 3.48148 163.828 5.02222C165.204 6.56296 166.259 8.2963 166.991 10.2222C167.723 12.1185 168.088 14.0593 168.088 16.0444C168.088 18.1481 167.708 20.1481 166.947 22.0444C166.185 23.9407 165.102 25.6444 163.697 27.1556C162.291 28.637 160.637 29.8222 158.734 30.7111C156.86 31.5704 154.796 32 152.541 32ZM144.416 16C144.416 17.2148 144.592 18.4 144.943 19.5556C145.295 20.6815 145.807 21.6889 146.48 22.5778C147.183 23.4667 148.047 24.1778 149.072 24.7111C150.096 25.2444 151.268 25.5111 152.585 25.5111C153.961 25.5111 155.162 25.2444 156.186 24.7111C157.211 24.1481 158.06 23.4074 158.734 22.4889C159.407 21.5704 159.905 20.5481 160.227 19.4222C160.578 18.2667 160.754 17.0963 160.754 15.9111C160.754 14.6963 160.578 13.5259 160.227 12.4C159.876 11.2741 159.349 10.2667 158.646 9.37778C157.943 8.45926 157.079 7.74815 156.055 7.24445C155.03 6.74074 153.873 6.48889 152.585 6.48889C151.209 6.48889 150.009 6.75556 148.984 7.28889C147.988 7.82222 147.139 8.54815 146.436 9.46667C145.763 10.3556 145.251 11.3778 144.899 12.5333C144.577 13.6593 144.416 14.8148 144.416 16Z" fill="url(#paint2_linear_630_181)"/>
<path d="M172.25 31.7333V0.177778H183.889C187.315 0.177778 190.169 0.888889 192.453 2.31111C194.766 3.7037 196.508 5.6 197.68 8C198.851 10.3704 199.436 13.0074 199.436 15.9111C199.436 19.1111 198.792 21.8963 197.504 24.2667C196.216 26.637 194.4 28.4741 192.058 29.7778C189.745 31.0815 187.022 31.7333 183.889 31.7333H172.25ZM192.102 15.9111C192.102 14.0741 191.78 12.4593 191.136 11.0667C190.491 9.64445 189.555 8.54815 188.325 7.77778C187.095 6.97778 185.616 6.57778 183.889 6.57778H179.453V25.3333H183.889C185.646 25.3333 187.124 24.9333 188.325 24.1333C189.555 23.3037 190.491 22.1778 191.136 20.7556C191.78 19.3037 192.102 17.6889 192.102 15.9111Z" fill="url(#paint3_linear_630_181)"/>
<defs>
<linearGradient id="paint0_linear_630_181" x1="140.187" y1="0" x2="140.187" y2="32" gradientUnits="userSpaceOnUse">
<stop stop-color="#FB6A10"/>
<stop offset="1" stop-color="#F7470D"/>
</linearGradient>
<linearGradient id="paint1_linear_630_181" x1="140.187" y1="0" x2="140.187" y2="32" gradientUnits="userSpaceOnUse">
<stop stop-color="#FB6A10"/>
<stop offset="1" stop-color="#F7470D"/>
</linearGradient>
<linearGradient id="paint2_linear_630_181" x1="140.187" y1="0" x2="140.187" y2="32" gradientUnits="userSpaceOnUse">
<stop stop-color="#FB6A10"/>
<stop offset="1" stop-color="#F7470D"/>
</linearGradient>
<linearGradient id="paint3_linear_630_181" x1="140.187" y1="0" x2="140.187" y2="32" gradientUnits="userSpaceOnUse">
<stop stop-color="#FB6A10"/>
<stop offset="1" stop-color="#F7470D"/>
</linearGradient>
</defs>
</svg>
