<svg width="108" height="16" viewBox="0 0 108 16" fill="none" xmlns="http://www.w3.org/2000/svg">
<path d="M13.18 1.02L7.88 15H6.28L0.98 1.02H2.5L7.08 13.48L11.7 1.02H13.18ZM18.8836 1.02V15H17.4836V1.02H18.8836ZM31.6939 15L28.2339 9.16H25.6539V15H24.2539V1.02H28.4539C30.0139 1.02 31.1939 1.39333 31.9939 2.14C32.8072 2.88667 33.2139 3.86667 33.2139 5.08C33.2139 6.09333 32.9206 6.96 32.3339 7.68C31.7606 8.38667 30.9072 8.84667 29.7739 9.06L33.3739 15H31.6939ZM25.6539 8.02H28.4739C29.5672 8.02 30.3872 7.75333 30.9339 7.22C31.4939 6.68667 31.7739 5.97333 31.7739 5.08C31.7739 4.16 31.5072 3.45333 30.9739 2.96C30.4406 2.45333 29.6006 2.2 28.4539 2.2H25.6539V8.02ZM46.3722 1.02V2.18H42.4922V15H41.0922V2.18H37.1922V1.02H46.3722ZM52.1228 1.02V9.82C52.1228 11.2067 52.4495 12.2333 53.1028 12.9C53.7695 13.5667 54.6761 13.9 55.8228 13.9C56.9695 13.9 57.8628 13.5733 58.5028 12.92C59.1561 12.2533 59.4828 11.22 59.4828 9.82V1.02H60.8828V9.8C60.8828 11.5733 60.4095 12.9067 59.4628 13.8C58.5295 14.6933 57.3095 15.14 55.8028 15.14C54.2961 15.14 53.0695 14.6933 52.1228 13.8C51.1895 12.9067 50.7228 11.5733 50.7228 9.8V1.02H52.1228ZM81.7455 0.96V15H78.3255V6.58L75.1855 15H72.4255L69.2655 6.56V15H65.8455V0.96H69.8855L73.8255 10.68L77.7255 0.96H81.7455ZM87.6248 3.7V6.54H92.2048V9.18H87.6248V12.26H92.8048V15H84.2048V0.96H92.8048V3.7H87.6248ZM100.285 0.96C101.765 0.96 103.058 1.25333 104.165 1.84C105.272 2.42667 106.125 3.25333 106.725 4.32C107.338 5.37333 107.645 6.59333 107.645 7.98C107.645 9.35333 107.338 10.5733 106.725 11.64C106.125 12.7067 105.265 13.5333 104.145 14.12C103.038 14.7067 101.752 15 100.285 15H95.0252V0.96H100.285ZM100.065 12.04C101.358 12.04 102.365 11.6867 103.085 10.98C103.805 10.2733 104.165 9.27333 104.165 7.98C104.165 6.68667 103.805 5.68 103.085 4.96C102.365 4.24 101.358 3.88 100.065 3.88H98.4452V12.04H100.065Z" fill="white"/>
</svg>
